<svg width="32" height="32" viewBox="0 0 32 32" fill="none" xmlns="http://www.w3.org/2000/svg">
<rect width="32" height="32" rx="16" fill="#FFB606"/>
<path d="M20.5143 15.0972C20.8978 15.0972 21.2087 14.7863 21.2087 14.4028C21.2087 14.0192 20.8978 13.7083 20.5143 13.7083C20.1307 13.7083 19.8198 14.0192 19.8198 14.4028C19.8198 14.7863 20.1307 15.0972 20.5143 15.0972Z" fill="white"/>
<path d="M22.1113 8.49997H21.2086V7.80553C21.2086 7.42199 20.8976 7.11108 20.5141 7.11108C20.1306 7.11108 19.8197 7.42199 19.8197 7.80553V8.49997H16.6599V7.80553C16.6599 7.42199 16.349 7.11108 15.9655 7.11108C15.582 7.11108 15.2711 7.42199 15.2711 7.80553V8.49997H12.1461V7.80553C12.1461 7.42199 11.8351 7.11108 11.4516 7.11108C11.0681 7.11108 10.7572 7.42199 10.7572 7.80553V8.49997H9.88911C8.35744 8.49997 7.11133 9.74608 7.11133 11.2778V22.1111C7.11133 23.6428 8.35744 24.8889 9.88911 24.8889H15.2016C15.5851 24.8889 15.8961 24.578 15.8961 24.1944C15.8961 23.8109 15.5851 23.5 15.2016 23.5H9.88911C9.12327 23.5 8.50022 22.8769 8.50022 22.1111V11.2778C8.50022 10.5119 9.12327 9.88886 9.88911 9.88886H10.7572V10.5833C10.7572 10.9668 11.0681 11.2778 11.4516 11.2778C11.8351 11.2778 12.1461 10.9668 12.1461 10.5833V9.88886H15.2711V10.5833C15.2711 10.9668 15.582 11.2778 15.9655 11.2778C16.349 11.2778 16.6599 10.9668 16.6599 10.5833V9.88886H19.8197V10.5833C19.8197 10.9668 20.1306 11.2778 20.5141 11.2778C20.8976 11.2778 21.2086 10.9668 21.2086 10.5833V9.88886H22.1113C22.8772 9.88886 23.5002 10.5119 23.5002 11.2778V15.2361C23.5002 15.6196 23.8111 15.9305 24.1947 15.9305C24.5782 15.9305 24.8891 15.6196 24.8891 15.2361V11.2778C24.8891 9.74608 23.643 8.49997 22.1113 8.49997Z" fill="white"/>
<path d="M20.6877 16.4861C18.3711 16.4861 16.4863 18.3708 16.4863 20.6875C16.4863 23.0041 18.3711 24.8889 20.6877 24.8889C23.0044 24.8889 24.8891 23.0041 24.8891 20.6875C24.8891 18.3708 23.0044 16.4861 20.6877 16.4861ZM20.6877 23.5C19.1369 23.5 17.8752 22.2383 17.8752 20.6875C17.8752 19.1366 19.1369 17.875 20.6877 17.875C22.2385 17.875 23.5002 19.1366 23.5002 20.6875C23.5002 22.2383 22.2385 23.5 20.6877 23.5Z" fill="white"/>
<path d="M21.6946 19.993H21.3821V19.2638C21.3821 18.8803 21.0712 18.5694 20.6876 18.5694C20.3041 18.5694 19.9932 18.8803 19.9932 19.2638V20.6875C19.9932 21.071 20.3041 21.3819 20.6876 21.3819H21.6946C22.0781 21.3819 22.389 21.071 22.389 20.6875C22.389 20.3039 22.0781 19.993 21.6946 19.993Z" fill="white"/>
<path d="M17.4933 15.0972C17.8768 15.0972 18.1877 14.7863 18.1877 14.4028C18.1877 14.0192 17.8768 13.7083 17.4933 13.7083C17.1097 13.7083 16.7988 14.0192 16.7988 14.4028C16.7988 14.7863 17.1097 15.0972 17.4933 15.0972Z" fill="white"/>
<path d="M14.4723 18.118C14.8558 18.118 15.1667 17.8071 15.1667 17.4236C15.1667 17.04 14.8558 16.7291 14.4723 16.7291C14.0887 16.7291 13.7778 17.04 13.7778 17.4236C13.7778 17.8071 14.0887 18.118 14.4723 18.118Z" fill="white"/>
<path d="M11.4518 15.0972C11.8353 15.0972 12.1462 14.7863 12.1462 14.4028C12.1462 14.0192 11.8353 13.7083 11.4518 13.7083C11.0682 13.7083 10.7573 14.0192 10.7573 14.4028C10.7573 14.7863 11.0682 15.0972 11.4518 15.0972Z" fill="white"/>
<path d="M11.4518 18.118C11.8353 18.118 12.1462 17.8071 12.1462 17.4236C12.1462 17.04 11.8353 16.7291 11.4518 16.7291C11.0682 16.7291 10.7573 17.04 10.7573 17.4236C10.7573 17.8071 11.0682 18.118 11.4518 18.118Z" fill="white"/>
<path d="M11.4518 21.1389C11.8353 21.1389 12.1462 20.828 12.1462 20.4444C12.1462 20.0609 11.8353 19.75 11.4518 19.75C11.0682 19.75 10.7573 20.0609 10.7573 20.4444C10.7573 20.828 11.0682 21.1389 11.4518 21.1389Z" fill="white"/>
<path d="M14.4723 21.1389C14.8558 21.1389 15.1667 20.828 15.1667 20.4444C15.1667 20.0609 14.8558 19.75 14.4723 19.75C14.0887 19.75 13.7778 20.0609 13.7778 20.4444C13.7778 20.828 14.0887 21.1389 14.4723 21.1389Z" fill="white"/>
<path d="M14.4723 15.0972C14.8558 15.0972 15.1667 14.7863 15.1667 14.4028C15.1667 14.0192 14.8558 13.7083 14.4723 13.7083C14.0887 13.7083 13.7778 14.0192 13.7778 14.4028C13.7778 14.7863 14.0887 15.0972 14.4723 15.0972Z" fill="white"/>
</svg>
