<svg width="32" height="32" viewBox="0 0 32 32" fill="none" xmlns="http://www.w3.org/2000/svg">
<rect width="32" height="32" rx="16" fill="#F3B600"/>
<path d="M8.09504 22.8936C7.85067 22.8936 7.65234 22.6953 7.65234 22.4509V9.17C7.65234 7.94992 8.64576 6.95651 9.86583 6.95651H15.1782C15.4226 6.95651 15.6209 7.15484 15.6209 7.39921C15.6209 7.64358 15.4226 7.84191 15.1782 7.84191H9.86583C9.13361 7.84191 8.53774 8.43778 8.53774 9.17V22.4509C8.53774 22.6953 8.33941 22.8936 8.09504 22.8936Z" fill="white"/>
<path d="M23.1467 24.6644H17.8344C17.59 24.6644 17.3917 24.4661 17.3917 24.2217C17.3917 23.9773 17.59 23.779 17.8344 23.779H22.704V21.1228H9.86583C9.13361 21.1228 8.53774 21.7187 8.53774 22.4509C8.53774 23.1831 9.13361 23.779 9.86583 23.779H13.4074C13.6518 23.779 13.8501 23.9773 13.8501 24.2217C13.8501 24.4661 13.6518 24.6644 13.4074 24.6644H9.86583C8.64576 24.6644 7.65234 23.671 7.65234 22.4509C7.65234 21.2308 8.64576 20.2374 9.86583 20.2374H23.1467C23.3911 20.2374 23.5894 20.4358 23.5894 20.6801V24.2217C23.5894 24.4661 23.3911 24.6644 23.1467 24.6644Z" fill="white"/>
<path d="M17.8345 28.206C17.7362 28.206 17.638 28.1732 17.5574 28.1095L15.621 26.5592L13.6838 28.1086C13.551 28.2149 13.3695 28.2352 13.2154 28.1617C13.0622 28.0882 12.9648 27.9333 12.9648 27.7633V22.4509C12.9648 22.2066 13.1632 22.0082 13.4075 22.0082C13.6519 22.0082 13.8502 22.2066 13.8502 22.4509V26.8416L15.3448 25.6463C15.5068 25.5171 15.7361 25.5171 15.8982 25.6463L17.3918 26.8416V22.4509C17.3918 22.2066 17.5901 22.0082 17.8345 22.0082C18.0789 22.0082 18.2772 22.2066 18.2772 22.4509V27.7633C18.2772 27.9333 18.1798 28.0882 18.0266 28.1626C17.9656 28.1918 17.9 28.206 17.8345 28.206Z" fill="white"/>
<path d="M19.6051 22.8936H11.6365C11.3922 22.8936 11.1938 22.6953 11.1938 22.4509C11.1938 22.2066 11.3922 22.0082 11.6365 22.0082H19.6051C19.8495 22.0082 20.0478 22.2066 20.0478 22.4509C20.0478 22.6953 19.8495 22.8936 19.6051 22.8936Z" fill="white"/>
<path d="M21.3757 18.4666C18.2024 18.4666 15.6206 15.8848 15.6206 12.7116C15.6206 9.53832 18.2024 6.95651 21.3757 6.95651C24.5489 6.95651 27.1307 9.53832 27.1307 12.7116C27.1307 15.8848 24.5489 18.4666 21.3757 18.4666ZM21.3757 7.84191C18.6903 7.84191 16.506 10.0262 16.506 12.7116C16.506 15.397 18.6903 17.5812 21.3757 17.5812C24.0611 17.5812 26.2453 15.397 26.2453 12.7116C26.2453 10.0262 24.0611 7.84191 21.3757 7.84191Z" fill="white"/>
<path d="M23.1466 15.3678C23.0333 15.3678 22.9199 15.3244 22.8332 15.2385L21.0624 13.4677C20.98 13.3845 20.9331 13.272 20.9331 13.1543V10.0554C20.9331 9.81103 21.1314 9.6127 21.3758 9.6127C21.6202 9.6127 21.8185 9.81103 21.8185 10.0554V12.971L23.46 14.6125C23.6327 14.7852 23.6327 15.0658 23.46 15.2385C23.3733 15.3244 23.2599 15.3678 23.1466 15.3678Z" fill="white"/>
</svg>
