<svg width="32" height="32" viewBox="0 0 32 32" fill="none" xmlns="http://www.w3.org/2000/svg">
<rect width="32" height="32" rx="16" fill="#FFB606"/>
<path d="M23.6521 27.7268H8.34766V7.75159H13.0185V9.39134H19.0309V7.75159H23.6521V27.7268ZM9.34145 26.733H22.6583V8.74538H20.0247V10.3851H12.0247V8.74538H9.34145V26.733Z" fill="white"/>
<path d="M18.2361 7.205H13.9131V6.45966C13.9131 5.26711 14.9069 4.27332 16.0994 4.27332C16.646 4.27332 17.1429 4.47207 17.6398 4.86959L17.6895 4.91928C18.087 5.36649 18.2858 5.86338 18.2858 6.45966V7.205H18.2361ZM14.9069 6.21121H17.1926C17.1429 6.01245 17.0435 5.81369 16.8945 5.61493C16.5963 5.36649 16.3479 5.26711 16.0497 5.26711C15.5032 5.26711 15.0063 5.66462 14.9069 6.21121Z" fill="white"/>
<path d="M20.0249 10.3852H12.0249V6.2113H20.0249V10.3852ZM13.0187 9.39144H19.0311V7.2051H13.0187V9.39144Z" fill="white"/>
<path d="M15.9502 12.2236H21.0682V13.2174H15.9502V12.2236Z" fill="white"/>
<path d="M15.9502 14.0621H21.0682V15.0559H15.9502V14.0621Z" fill="white"/>
<path d="M12.5214 14.7081L11.2295 13.4162L11.9251 12.6708L12.5214 13.3168L14.2606 11.528L14.9562 12.2733L12.5214 14.7081Z" fill="white"/>
<path d="M15.9502 17.2423H21.0682V18.2361H15.9502V17.2423Z" fill="white"/>
<path d="M15.9502 19.0311H21.0682V20.0249H15.9502V19.0311Z" fill="white"/>
<path d="M12.5214 19.6771L11.2295 18.3355L11.9251 17.6398L12.5214 18.2361L14.2606 16.5466L14.9562 17.2423L12.5214 19.6771Z" fill="white"/>
<path d="M15.9502 22.1616H21.0682V23.1554H15.9502V22.1616Z" fill="white"/>
<path d="M15.9502 24.0001H21.0682V24.9939H15.9502V24.0001Z" fill="white"/>
<path d="M12.5218 24.6958L11.1802 23.3045L11.9255 22.6088L12.5218 23.2548L14.2609 21.5156L14.9566 22.2113L12.5218 24.6958Z" fill="white"/>
</svg>
