<svg width="32" height="32" viewBox="0 0 32 32" fill="none" xmlns="http://www.w3.org/2000/svg">
<rect width="32" height="32" rx="16" fill="#FFB606"/>
<path d="M24.997 25.5609L24.6162 22.4411C24.6037 21.9433 24.2876 21.5217 23.8508 21.3635C23.8501 13.9291 23.8535 14.4114 23.8442 14.3599C23.8193 14.2217 23.7232 14.109 23.5976 14.0632L19.6262 12.6108C19.8794 12.0279 20.0204 11.383 20.0204 10.705C20.0204 8.11066 17.9591 6 15.4254 6C12.8918 6 10.8305 8.11066 10.8305 10.705C10.8305 11.383 10.9715 12.0279 11.2247 12.6108L7.25319 14.0633C7.10132 14.1188 7 14.266 7 14.4311C7 14.5962 7.10132 14.7435 7.25319 14.799L9.29823 15.5468V20.0109C9.29823 20.4655 9.55818 20.8834 9.96053 21.0757C13.4334 22.7353 17.4172 22.7353 20.8903 21.0757C21.2926 20.8834 21.5525 20.4655 21.5525 20.0109V15.5469L23.0878 14.9854V21.3636C22.651 21.5217 22.335 21.9433 22.3225 22.4411L21.9416 25.5609C21.9133 25.7936 22.0905 26 22.3202 26H24.6184C24.8483 26 25.0254 25.7934 24.997 25.5609ZM15.4254 6.78125C17.5384 6.78125 19.2574 8.54148 19.2574 10.705C19.2574 12.8686 17.5384 14.6288 15.4254 14.6288C13.3125 14.6288 11.5935 12.8686 11.5935 10.705C11.5935 8.54144 13.3124 6.78125 15.4254 6.78125ZM20.7896 15.8259V20.0109C20.7896 20.1633 20.7025 20.3034 20.5677 20.3678C17.2996 21.9294 13.5511 21.9294 10.2832 20.3678C10.1484 20.3034 10.0612 20.1633 10.0612 20.0109V15.8259L15.2971 17.7406C15.3801 17.771 15.4707 17.771 15.5537 17.7406L20.7896 15.8259ZM15.4254 16.9579C14.213 16.5146 9.28026 14.7107 8.51569 14.4311L11.5972 13.3041C12.4211 14.5724 13.8295 15.4101 15.4254 15.4101C17.0214 15.4101 18.4297 14.5724 19.2537 13.3041L22.3352 14.4311C21.5803 14.7072 16.2819 16.6447 15.4254 16.9579ZM23.4693 22.0778C23.6814 22.0778 23.854 22.2544 23.854 22.4716C23.854 22.6888 23.6814 22.8654 23.4693 22.8654C23.2572 22.8654 23.0847 22.6887 23.0847 22.4716C23.0847 22.2544 23.2573 22.0778 23.4693 22.0778ZM22.7524 25.2187L22.9593 23.5238C23.2747 23.6847 23.6526 23.6905 23.9794 23.5238L24.1863 25.2187H22.7524Z" fill="white"/>
<path d="M15.2971 11.0861H14.3608C14.1033 11.0861 13.8945 11.2948 13.8945 11.5523C13.8945 11.8098 14.1033 12.0186 14.3608 12.0186H14.8309V12.4887C14.8309 12.7462 15.0397 12.955 15.2971 12.955C15.5546 12.955 15.7634 12.7462 15.7634 12.4887V11.9386C16.3082 11.7459 16.6998 11.2259 16.6998 10.616C16.6998 9.84256 16.0705 9.21337 15.2971 9.21337C15.0379 9.21337 14.8271 9.00252 14.8271 8.74327C14.8271 8.48407 15.038 8.27322 15.2971 8.27322H16.2335C16.491 8.27322 16.6998 8.06442 16.6998 7.80694C16.6998 7.54947 16.491 7.34067 16.2335 7.34067H15.7634V6.87057C15.7634 6.61305 15.5546 6.4043 15.2971 6.4043C15.0397 6.4043 14.8309 6.61305 14.8309 6.87057V7.42068C14.286 7.61335 13.8945 8.13334 13.8945 8.74332C13.8945 9.51673 14.5237 10.146 15.2971 10.146C15.5564 10.146 15.7672 10.3568 15.7672 10.616C15.7672 10.8752 15.5563 11.0861 15.2971 11.0861Z" fill="white"/>
</svg>
